<?xml version="1.0" encoding="UTF-8" standalone="no"?>
<svg
   viewBox="215.199951171875 1184.199951171875 1115.7999267578125 1115.900146484375"
   width="1115.7999267578125"
   height="1115.900146484375"
   version="1.1"
   id="svg172"
   sodipodi:docname="vinyl.svg"
   inkscape:version="1.3 (0e150ed6c4, 2023-07-21)"
   xmlns:inkscape="http://www.inkscape.org/namespaces/inkscape"
   xmlns:sodipodi="http://sodipodi.sourceforge.net/DTD/sodipodi-0.dtd"
   xmlns="http://www.w3.org/2000/svg"
   xmlns:svg="http://www.w3.org/2000/svg">
  <defs
     id="defs172">
    <linearGradient
       id="SVGID_23_"
       gradientUnits="userSpaceOnUse"
       x1="792.94891"
       y1="1441.4266"
       x2="1073.775"
       y2="1722.2528">
      <stop
         offset="0"
         style="stop-color:#FFFFFF;stop-opacity:0"
         id="stop115" />
      <stop
         offset="0.4312"
         style="stop-color:#FFFFFF;stop-opacity:0.8625"
         id="stop116" />
      <stop
         offset="0.5"
         style="stop-color:#FFFFFF"
         id="stop117" />
      <stop
         offset="0.5688"
         style="stop-color:#FFFFFF;stop-opacity:0.8625"
         id="stop118" />
      <stop
         offset="1"
         style="stop-color:#FFFFFF;stop-opacity:0"
         id="stop119" />
    </linearGradient>
    <linearGradient
       id="SVGID_24_"
       gradientUnits="userSpaceOnUse"
       x1="797.55188"
       y1="1405.4408"
       x2="1109.7618"
       y2="1717.6508">
      <stop
         offset="0"
         style="stop-color:#FFFFFF;stop-opacity:0"
         id="stop120" />
      <stop
         offset="0.5"
         style="stop-color:#FFFFFF"
         id="stop121" />
      <stop
         offset="1"
         style="stop-color:#FFFFFF;stop-opacity:0"
         id="stop122" />
    </linearGradient>
    <linearGradient
       id="SVGID_25_"
       gradientUnits="userSpaceOnUse"
       x1="803.15802"
       y1="1314.3416"
       x2="1200.8597"
       y2="1712.0432">
      <stop
         offset="5.000000e-02"
         style="stop-color:#FFFFFF;stop-opacity:0"
         id="stop123" />
      <stop
         offset="0.5"
         style="stop-color:#FFFFFF"
         id="stop124" />
      <stop
         offset="0.95"
         style="stop-color:#FFFFFF;stop-opacity:0"
         id="stop125" />
    </linearGradient>
    <linearGradient
       id="SVGID_26_"
       gradientUnits="userSpaceOnUse"
       x1="809.0202"
       y1="1272.7673"
       x2="1242.4341"
       y2="1706.1813">
      <stop
         offset="5.000000e-02"
         style="stop-color:#FFFFFF;stop-opacity:0"
         id="stop126" />
      <stop
         offset="0.5"
         style="stop-color:#FFFFFF"
         id="stop127" />
      <stop
         offset="0.95"
         style="stop-color:#FFFFFF;stop-opacity:0"
         id="stop128" />
    </linearGradient>
    <linearGradient
       id="SVGID_27_"
       gradientUnits="userSpaceOnUse"
       x1="810.18298"
       y1="1218.5781"
       x2="1296.6248"
       y2="1705.0198">
      <stop
         offset="0.1"
         style="stop-color:#FFFFFF;stop-opacity:0"
         id="stop129" />
      <stop
         offset="0.5"
         style="stop-color:#FFFFFF"
         id="stop130" />
      <stop
         offset="0.9"
         style="stop-color:#FFFFFF;stop-opacity:0"
         id="stop131" />
    </linearGradient>
    <linearGradient
       id="SVGID_28_"
       gradientUnits="userSpaceOnUse"
       x1="815.51257"
       y1="1159.1207"
       x2="1356.0807"
       y2="1699.6888">
      <stop
         offset="0.1"
         style="stop-color:#FFFFFF;stop-opacity:0"
         id="stop132" />
      <stop
         offset="0.155"
         style="stop-color:#FFFFFF;stop-opacity:0.1375"
         id="stop133" />
      <stop
         offset="0.5"
         style="stop-color:#FFFFFF"
         id="stop134" />
      <stop
         offset="0.845"
         style="stop-color:#FFFFFF;stop-opacity:0.1375"
         id="stop135" />
      <stop
         offset="0.9"
         style="stop-color:#FFFFFF;stop-opacity:0"
         id="stop136" />
    </linearGradient>
    <linearGradient
       id="SVGID_29_"
       gradientUnits="userSpaceOnUse"
       x1="826.51178"
       y1="1130.8256"
       x2="1384.3768"
       y2="1688.6906">
      <stop
         offset="0"
         style="stop-color:#FFFFFF;stop-opacity:0"
         id="stop137" />
      <stop
         offset="0.5"
         style="stop-color:#FFFFFF"
         id="stop138" />
      <stop
         offset="1"
         style="stop-color:#FFFFFF;stop-opacity:0"
         id="stop139" />
    </linearGradient>
    <linearGradient
       id="SVGID_30_"
       gradientUnits="userSpaceOnUse"
       x1="799.37457"
       y1="1362.4941"
       x2="1152.7075"
       y2="1715.8271">
      <stop
         offset="0"
         style="stop-color:#FFFFFF;stop-opacity:0"
         id="stop140" />
      <stop
         offset="0.5"
         style="stop-color:#FFFFFF"
         id="stop141" />
      <stop
         offset="1"
         style="stop-color:#FFFFFF;stop-opacity:0"
         id="stop142" />
    </linearGradient>
  </defs>
  <sodipodi:namedview
     id="namedview172"
     pagecolor="#ffffff"
     bordercolor="#000000"
     borderopacity="0.25"
     inkscape:showpageshadow="2"
     inkscape:pageopacity="0.0"
     inkscape:pagecheckerboard="0"
     inkscape:deskcolor="#d1d1d1"
     inkscape:zoom="0.40494826"
     inkscape:cx="283.9869"
     inkscape:cy="669.2213"
     inkscape:window-width="1600"
     inkscape:window-height="878"
     inkscape:window-x="-8"
     inkscape:window-y="-8"
     inkscape:window-maximized="1"
     inkscape:current-layer="svg172" />
  <g
     id="g1">
    <path
       d="m 773.1,1184.3 c -308.1,0 -557.9,249.8 -557.9,557.9 0,308.1 249.8,557.9 557.9,557.9 308.1,0 557.9,-249.8 557.9,-557.9 -0.1,-308.2 -249.8,-557.9 -557.9,-557.9 z m 0,573.5 c -8.7,0 -15.7,-7 -15.7,-15.7 0,-8.7 7,-15.7 15.7,-15.7 8.7,0 15.7,7 15.7,15.7 0,8.7 -7.1,15.7 -15.7,15.7 z"
       id="path1" />
    <g
       id="g103"
       transform="translate(-6.0449219e-5)">
      <path
         d="M 1312.5,1742.1 A 539.40002,539.40002 0 0 1 773.09998,2281.5 539.40002,539.40002 0 0 1 233.69995,1742.1 539.40002,539.40002 0 0 1 773.09998,1202.7 539.40002,539.40002 0 0 1 1312.5,1742.1 Z"
         class="st107"
         style="fill:none;stroke:#414042;stroke-width:1.143;stroke-miterlimit:10"
         id="path2" />
      <path
         d="M 1307.2,1742.1 A 534.09998,534.09998 0 0 1 773.09998,2276.2 534.09998,534.09998 0 0 1 239,1742.1 534.09998,534.09998 0 0 1 773.09998,1208 534.09998,534.09998 0 0 1 1307.2,1742.1 Z"
         class="st107"
         style="fill:none;stroke:#414042;stroke-width:1.143;stroke-miterlimit:10"
         id="path3" />
      <path
         d="M 1301.8,1742.1 A 528.70001,528.70001 0 0 1 773.09998,2270.8 528.70001,528.70001 0 0 1 244.39996,1742.1 528.70001,528.70001 0 0 1 773.09998,1213.4 528.70001,528.70001 0 0 1 1301.8,1742.1 Z"
         class="st107"
         style="fill:none;stroke:#414042;stroke-width:1.143;stroke-miterlimit:10"
         id="path4" />
      <path
         d="M 1296.5,1742.1 A 523.40002,523.40002 0 0 1 773.09998,2265.5 523.40002,523.40002 0 0 1 249.69995,1742.1 523.40002,523.40002 0 0 1 773.09998,1218.7 523.40002,523.40002 0 0 1 1296.5,1742.1 Z"
         class="st107"
         style="fill:none;stroke:#414042;stroke-width:1.143;stroke-miterlimit:10"
         id="path5" />
      <path
         d="M 1291.2,1742.1 A 518.09998,518.09998 0 0 1 773.09998,2260.2 518.09998,518.09998 0 0 1 255,1742.1 518.09998,518.09998 0 0 1 773.09998,1224 518.09998,518.09998 0 0 1 1291.2,1742.1 Z"
         class="st107"
         style="fill:none;stroke:#414042;stroke-width:1.143;stroke-miterlimit:10"
         id="path6" />
      <path
         d="M 1285.9,1742.1 A 512.79999,512.79999 0 0 1 773.09998,2254.9 512.79999,512.79999 0 0 1 260.29999,1742.1 512.79999,512.79999 0 0 1 773.09998,1229.3 512.79999,512.79999 0 0 1 1285.9,1742.1 Z"
         class="st107"
         style="fill:none;stroke:#414042;stroke-width:1.143;stroke-miterlimit:10"
         id="path7" />
      <path
         d="m 1280.6,1742.1 a 507.5,507.5 0 0 1 -507.50002,507.5 507.5,507.5 0 0 1 -507.5,-507.5 507.5,507.5 0 0 1 507.5,-507.5 507.5,507.5 0 0 1 507.50002,507.5 z"
         class="st107"
         style="fill:none;stroke:#414042;stroke-width:1.143;stroke-miterlimit:10"
         id="path8" />
      <path
         d="M 1275.3,1742.1 A 502.20001,502.20001 0 0 1 773.09998,2244.3 502.20001,502.20001 0 0 1 270.89996,1742.1 502.20001,502.20001 0 0 1 773.09998,1239.9 502.20001,502.20001 0 0 1 1275.3,1742.1 Z"
         class="st107"
         style="fill:none;stroke:#414042;stroke-width:1.143;stroke-miterlimit:10"
         id="path9" />
      <path
         d="m 1270,1742.1 a 496.89999,496.89999 0 0 1 -496.90002,496.9 496.89999,496.89999 0 0 1 -496.9,-496.9 496.89999,496.89999 0 0 1 496.9,-496.9 A 496.89999,496.89999 0 0 1 1270,1742.1 Z"
         class="st107"
         style="fill:none;stroke:#414042;stroke-width:1.143;stroke-miterlimit:10"
         id="path10" />
      <path
         d="M 1264.7,1742.1 A 491.60001,491.60001 0 0 1 773.09998,2233.7 491.60001,491.60001 0 0 1 281.49997,1742.1 491.60001,491.60001 0 0 1 773.09998,1250.5 491.60001,491.60001 0 0 1 1264.7,1742.1 Z"
         class="st107"
         style="fill:none;stroke:#414042;stroke-width:1.143;stroke-miterlimit:10"
         id="path11" />
      <path
         d="M 1259.4,1742.1 A 486.29999,486.29999 0 0 1 773.09998,2228.4 486.29999,486.29999 0 0 1 286.79999,1742.1 486.29999,486.29999 0 0 1 773.09998,1255.8 486.29999,486.29999 0 0 1 1259.4,1742.1 Z"
         class="st107"
         style="fill:none;stroke:#414042;stroke-width:1.143;stroke-miterlimit:10"
         id="path12" />
      <path
         d="M 1254.2,1742.1 A 481.10001,481.10001 0 0 1 773.09998,2223.2 481.10001,481.10001 0 0 1 291.99997,1742.1 481.10001,481.10001 0 0 1 773.09998,1261 481.10001,481.10001 0 0 1 1254.2,1742.1 Z"
         class="st107"
         style="fill:none;stroke:#414042;stroke-width:1.143;stroke-miterlimit:10"
         id="path13" />
      <path
         d="M 1248.9,1742.1 A 475.79999,475.79999 0 0 1 773.09998,2217.9 475.79999,475.79999 0 0 1 297.29999,1742.1 475.79999,475.79999 0 0 1 773.09998,1266.3 475.79999,475.79999 0 0 1 1248.9,1742.1 Z"
         class="st107"
         style="fill:none;stroke:#414042;stroke-width:1.143;stroke-miterlimit:10"
         id="path14" />
      <path
         d="M 1243.7,1742.1 A 470.60001,470.60001 0 0 1 773.09998,2212.7 470.60001,470.60001 0 0 1 302.49997,1742.1 470.60001,470.60001 0 0 1 773.09998,1271.5 470.60001,470.60001 0 0 1 1243.7,1742.1 Z"
         class="st107"
         style="fill:none;stroke:#414042;stroke-width:1.143;stroke-miterlimit:10"
         id="path15" />
      <path
         d="M 1238.4,1742.1 A 465.29999,465.29999 0 0 1 773.09998,2207.4 465.29999,465.29999 0 0 1 307.79999,1742.1 465.29999,465.29999 0 0 1 773.09998,1276.8 465.29999,465.29999 0 0 1 1238.4,1742.1 Z"
         class="st107"
         style="fill:none;stroke:#414042;stroke-width:1.143;stroke-miterlimit:10"
         id="path16" />
      <path
         d="M 1233.2,1742.1 A 460.10001,460.10001 0 0 1 773.09998,2202.2 460.10001,460.10001 0 0 1 312.99997,1742.1 460.10001,460.10001 0 0 1 773.09998,1282 460.10001,460.10001 0 0 1 1233.2,1742.1 Z"
         class="st107"
         style="fill:none;stroke:#414042;stroke-width:1.143;stroke-miterlimit:10"
         id="path17" />
      <path
         d="m 1228,1742.1 a 454.89999,454.89999 0 0 1 -454.90002,454.9 454.89999,454.89999 0 0 1 -454.9,-454.9 454.89999,454.89999 0 0 1 454.9,-454.9 A 454.89999,454.89999 0 0 1 1228,1742.1 Z"
         class="st107"
         style="fill:none;stroke:#414042;stroke-width:1.143;stroke-miterlimit:10"
         id="path18" />
      <path
         d="M 1222.8,1742.1 A 449.70001,449.70001 0 0 1 773.09998,2191.8 449.70001,449.70001 0 0 1 323.39996,1742.1 449.70001,449.70001 0 0 1 773.09998,1292.4 449.70001,449.70001 0 0 1 1222.8,1742.1 Z"
         class="st107"
         style="fill:none;stroke:#414042;stroke-width:1.143;stroke-miterlimit:10"
         id="path19" />
      <path
         d="m 1217.6,1742.1 a 444.5,444.5 0 0 1 -444.50002,444.5 444.5,444.5 0 0 1 -444.5,-444.5 444.5,444.5 0 0 1 444.5,-444.5 444.5,444.5 0 0 1 444.50002,444.5 z"
         class="st107"
         style="fill:none;stroke:#414042;stroke-width:1.143;stroke-miterlimit:10"
         id="path20" />
      <path
         d="M 1212.4,1742.1 A 439.29999,439.29999 0 0 1 773.09998,2181.4 439.29999,439.29999 0 0 1 333.79999,1742.1 439.29999,439.29999 0 0 1 773.09998,1302.8 439.29999,439.29999 0 0 1 1212.4,1742.1 Z"
         class="st107"
         style="fill:none;stroke:#414042;stroke-width:1.143;stroke-miterlimit:10"
         id="path21" />
      <path
         d="M 1207.2,1742.1 A 434.10001,434.10001 0 0 1 773.09998,2176.2 434.10001,434.10001 0 0 1 338.99997,1742.1 434.10001,434.10001 0 0 1 773.09998,1308 434.10001,434.10001 0 0 1 1207.2,1742.1 Z"
         class="st107"
         style="fill:none;stroke:#414042;stroke-width:1.143;stroke-miterlimit:10"
         id="path22" />
      <path
         d="m 1202,1742.1 a 428.89999,428.89999 0 0 1 -428.90002,428.9 428.89999,428.89999 0 0 1 -428.9,-428.9 428.89999,428.89999 0 0 1 428.9,-428.9 A 428.89999,428.89999 0 0 1 1202,1742.1 Z"
         class="st107"
         style="fill:none;stroke:#414042;stroke-width:1.143;stroke-miterlimit:10"
         id="path23" />
      <path
         d="M 1196.9,1742.1 A 423.79999,423.79999 0 0 1 773.09998,2165.9 423.79999,423.79999 0 0 1 349.29999,1742.1 423.79999,423.79999 0 0 1 773.09998,1318.3 423.79999,423.79999 0 0 1 1196.9,1742.1 Z"
         class="st107"
         style="fill:none;stroke:#414042;stroke-width:1.143;stroke-miterlimit:10"
         id="path24" />
      <path
         d="M 1191.7,1742.1 A 418.60001,418.60001 0 0 1 773.09998,2160.7 418.60001,418.60001 0 0 1 354.49997,1742.1 418.60001,418.60001 0 0 1 773.09998,1323.5 418.60001,418.60001 0 0 1 1191.7,1742.1 Z"
         class="st107"
         style="fill:none;stroke:#414042;stroke-width:1.143;stroke-miterlimit:10"
         id="path25" />
      <path
         d="m 1186.6,1742.1 a 413.5,413.5 0 0 1 -413.50002,413.5 413.5,413.5 0 0 1 -413.5,-413.5 413.5,413.5 0 0 1 413.5,-413.5 413.5,413.5 0 0 1 413.50002,413.5 z"
         class="st107"
         style="fill:none;stroke:#414042;stroke-width:1.143;stroke-miterlimit:10"
         id="path26" />
      <path
         d="m 1181.5,1742.1 a 408.39999,408.39999 0 0 1 -408.40002,408.4 408.39999,408.39999 0 0 1 -408.4,-408.4 408.39999,408.39999 0 0 1 408.4,-408.4 408.39999,408.39999 0 0 1 408.40002,408.4 z"
         class="st107"
         style="fill:none;stroke:#414042;stroke-width:1.143;stroke-miterlimit:10"
         id="path27" />
      <path
         d="M 1176.4,1742.1 A 403.29999,403.29999 0 0 1 773.09998,2145.4 403.29999,403.29999 0 0 1 369.79999,1742.1 403.29999,403.29999 0 0 1 773.09998,1338.8 403.29999,403.29999 0 0 1 1176.4,1742.1 Z"
         class="st107"
         style="fill:none;stroke:#414042;stroke-width:1.143;stroke-miterlimit:10"
         id="path28" />
      <path
         d="M 1171.3,1742.1 A 398.20001,398.20001 0 0 1 773.09998,2140.3 398.20001,398.20001 0 0 1 374.89996,1742.1 398.20001,398.20001 0 0 1 773.09998,1343.9 398.20001,398.20001 0 0 1 1171.3,1742.1 Z"
         class="st107"
         style="fill:none;stroke:#414042;stroke-width:1.143;stroke-miterlimit:10"
         id="path29" />
      <path
         d="M 1166.2,1742.1 A 393.10001,393.10001 0 0 1 773.09998,2135.2 393.10001,393.10001 0 0 1 379.99997,1742.1 393.10001,393.10001 0 0 1 773.09998,1349 393.10001,393.10001 0 0 1 1166.2,1742.1 Z"
         class="st107"
         style="fill:none;stroke:#414042;stroke-width:1.143;stroke-miterlimit:10"
         id="path30" />
      <path
         d="M 1161.2,1742.1 A 388.10001,388.10001 0 0 1 773.09998,2130.2 388.10001,388.10001 0 0 1 384.99997,1742.1 388.10001,388.10001 0 0 1 773.09998,1354 388.10001,388.10001 0 0 1 1161.2,1742.1 Z"
         class="st107"
         style="fill:none;stroke:#414042;stroke-width:1.143;stroke-miterlimit:10"
         id="path31" />
      <path
         d="m 1156.1,1742.1 a 383,383 0 0 1 -383.00002,383 383,383 0 0 1 -383,-383 383,383 0 0 1 383,-383 383,383 0 0 1 383.00002,383 z"
         class="st107"
         style="fill:none;stroke:#414042;stroke-width:1.143;stroke-miterlimit:10"
         id="path32" />
      <path
         d="m 1151.1,1742.1 a 378,378 0 0 1 -378.00002,378 378,378 0 0 1 -378,-378 378,378 0 0 1 378,-378 378,378 0 0 1 378.00002,378 z"
         class="st107"
         style="fill:none;stroke:#414042;stroke-width:1.143;stroke-miterlimit:10"
         id="path33" />
      <path
         d="m 1146.1,1742.1 a 373,373 0 0 1 -373.00002,373 373,373 0 0 1 -373,-373 373,373 0 0 1 373,-373 373,373 0 0 1 373.00002,373 z"
         class="st107"
         style="fill:none;stroke:#414042;stroke-width:1.143;stroke-miterlimit:10"
         id="path34" />
      <path
         d="m 1141.1,1742.1 a 368,368 0 0 1 -368.00002,368 368,368 0 0 1 -368,-368 368,368 0 0 1 368,-368 368,368 0 0 1 368.00002,368 z"
         class="st107"
         style="fill:none;stroke:#414042;stroke-width:1.143;stroke-miterlimit:10"
         id="path35" />
      <path
         d="M 1136.2,1742.1 A 363.10001,363.10001 0 0 1 773.09998,2105.2 363.10001,363.10001 0 0 1 409.99997,1742.1 363.10001,363.10001 0 0 1 773.09998,1379 363.10001,363.10001 0 0 1 1136.2,1742.1 Z"
         class="st107"
         style="fill:none;stroke:#414042;stroke-width:1.143;stroke-miterlimit:10"
         id="path36" />
      <path
         d="M 1131.2,1742.1 A 358.10001,358.10001 0 0 1 773.09998,2100.2 358.10001,358.10001 0 0 1 414.99997,1742.1 358.10001,358.10001 0 0 1 773.09998,1384 358.10001,358.10001 0 0 1 1131.2,1742.1 Z"
         class="st107"
         style="fill:none;stroke:#414042;stroke-width:1.143;stroke-miterlimit:10"
         id="path37" />
      <path
         d="M 1126.3,1742.1 A 353.20001,353.20001 0 0 1 773.09998,2095.3 353.20001,353.20001 0 0 1 419.89996,1742.1 353.20001,353.20001 0 0 1 773.09998,1388.9 353.20001,353.20001 0 0 1 1126.3,1742.1 Z"
         class="st107"
         style="fill:none;stroke:#414042;stroke-width:1.143;stroke-miterlimit:10"
         id="path38" />
      <path
         d="M 1121.4,1742.1 A 348.29999,348.29999 0 0 1 773.09998,2090.4 348.29999,348.29999 0 0 1 424.79999,1742.1 348.29999,348.29999 0 0 1 773.09998,1393.8 348.29999,348.29999 0 0 1 1121.4,1742.1 Z"
         class="st107"
         style="fill:none;stroke:#414042;stroke-width:1.143;stroke-miterlimit:10"
         id="path39" />
      <path
         d="m 1116.5,1742.1 a 343.39999,343.39999 0 0 1 -343.40002,343.4 343.39999,343.39999 0 0 1 -343.4,-343.4 343.39999,343.39999 0 0 1 343.4,-343.4 343.39999,343.39999 0 0 1 343.40002,343.4 z"
         class="st107"
         style="fill:none;stroke:#414042;stroke-width:1.143;stroke-miterlimit:10"
         id="path40" />
      <path
         d="m 1111.6,1742.1 a 338.5,338.5 0 0 1 -338.50002,338.5 338.5,338.5 0 0 1 -338.5,-338.5 338.5,338.5 0 0 1 338.5,-338.5 338.5,338.5 0 0 1 338.50002,338.5 z"
         class="st107"
         style="fill:none;stroke:#414042;stroke-width:1.143;stroke-miterlimit:10"
         id="path41" />
      <path
         d="M 1106.8,1742.1 A 333.70001,333.70001 0 0 1 773.09998,2075.8 333.70001,333.70001 0 0 1 439.39996,1742.1 333.70001,333.70001 0 0 1 773.09998,1408.4 333.70001,333.70001 0 0 1 1106.8,1742.1 Z"
         class="st107"
         style="fill:none;stroke:#414042;stroke-width:1.143;stroke-miterlimit:10"
         id="path42" />
      <path
         d="m 1102,1742.1 a 328.89999,328.89999 0 0 1 -328.90002,328.9 328.89999,328.89999 0 0 1 -328.9,-328.9 328.89999,328.89999 0 0 1 328.9,-328.9 A 328.89999,328.89999 0 0 1 1102,1742.1 Z"
         class="st107"
         style="fill:none;stroke:#414042;stroke-width:1.143;stroke-miterlimit:10"
         id="path43" />
      <path
         d="M 1097.2,1742.1 A 324.10001,324.10001 0 0 1 773.09998,2066.2 324.10001,324.10001 0 0 1 448.99997,1742.1 324.10001,324.10001 0 0 1 773.09998,1418 324.10001,324.10001 0 0 1 1097.2,1742.1 Z"
         class="st107"
         style="fill:none;stroke:#414042;stroke-width:1.143;stroke-miterlimit:10"
         id="path44" />
      <path
         d="m 1092.5,1742.1 a 319.39999,319.39999 0 0 1 -319.40002,319.4 319.39999,319.39999 0 0 1 -319.4,-319.4 319.39999,319.39999 0 0 1 319.4,-319.4 319.39999,319.39999 0 0 1 319.40002,319.4 z"
         class="st107"
         style="fill:none;stroke:#414042;stroke-width:1.143;stroke-miterlimit:10"
         id="path45" />
      <path
         d="M 1087.7,1742.1 A 314.60001,314.60001 0 0 1 773.09998,2056.7 314.60001,314.60001 0 0 1 458.49997,1742.1 314.60001,314.60001 0 0 1 773.09998,1427.5 314.60001,314.60001 0 0 1 1087.7,1742.1 Z"
         class="st107"
         style="fill:none;stroke:#414042;stroke-width:1.143;stroke-miterlimit:10"
         id="path46" />
      <path
         d="m 1083,1742.1 a 309.89999,309.89999 0 0 1 -309.90002,309.9 309.89999,309.89999 0 0 1 -309.9,-309.9 309.89999,309.89999 0 0 1 309.9,-309.9 A 309.89999,309.89999 0 0 1 1083,1742.1 Z"
         class="st107"
         style="fill:none;stroke:#414042;stroke-width:1.143;stroke-miterlimit:10"
         id="path47" />
      <path
         d="M 1078.4,1742.1 A 305.29999,305.29999 0 0 1 773.09998,2047.4 305.29999,305.29999 0 0 1 467.79999,1742.1 305.29999,305.29999 0 0 1 773.09998,1436.8 305.29999,305.29999 0 0 1 1078.4,1742.1 Z"
         class="st107"
         style="fill:none;stroke:#414042;stroke-width:1.143;stroke-miterlimit:10"
         id="path48" />
      <path
         d="M 1073.7,1742.1 A 300.60001,300.60001 0 0 1 773.09998,2042.7 300.60001,300.60001 0 0 1 472.49997,1742.1 300.60001,300.60001 0 0 1 773.09998,1441.5 300.60001,300.60001 0 0 1 1073.7,1742.1 Z"
         class="st107"
         style="fill:none;stroke:#414042;stroke-width:1.143;stroke-miterlimit:10"
         id="path49" />
      <path
         d="M 1069.2,1742.1 A 296.10001,296.10001 0 0 1 773.09998,2038.2 296.10001,296.10001 0 0 1 476.99997,1742.1 296.10001,296.10001 0 0 1 773.09998,1446 296.10001,296.10001 0 0 1 1069.2,1742.1 Z"
         class="st107"
         style="fill:none;stroke:#414042;stroke-width:1.143;stroke-miterlimit:10"
         id="path50" />
      <path
         d="m 1064.6,1742.1 a 291.5,291.5 0 0 1 -291.50002,291.5 291.5,291.5 0 0 1 -291.5,-291.5 291.5,291.5 0 0 1 291.5,-291.5 291.5,291.5 0 0 1 291.50002,291.5 z"
         class="st107"
         style="fill:none;stroke:#414042;stroke-width:1.143;stroke-miterlimit:10"
         id="path51" />
      <path
         d="m 1060.1,1742.1 a 287,287 0 0 1 -287.00002,287 287,287 0 0 1 -287,-287 287,287 0 0 1 287,-287 287,287 0 0 1 287.00002,287 z"
         class="st107"
         style="fill:none;stroke:#414042;stroke-width:1.143;stroke-miterlimit:10"
         id="path52" />
      <path
         d="m 1055.6,1742.1 a 282.5,282.5 0 0 1 -282.50002,282.5 282.5,282.5 0 0 1 -282.5,-282.5 282.5,282.5 0 0 1 282.5,-282.5 282.5,282.5 0 0 1 282.50002,282.5 z"
         class="st107"
         style="fill:none;stroke:#414042;stroke-width:1.143;stroke-miterlimit:10"
         id="path53" />
      <path
         d="M 1051.2,1742.1 A 278.10001,278.10001 0 0 1 773.09998,2020.2 278.10001,278.10001 0 0 1 494.99997,1742.1 278.10001,278.10001 0 0 1 773.09998,1464 278.10001,278.10001 0 0 1 1051.2,1742.1 Z"
         class="st107"
         style="fill:none;stroke:#414042;stroke-width:1.143;stroke-miterlimit:10"
         id="path54" />
      <path
         d="M 1046.8,1742.1 A 273.70001,273.70001 0 0 1 773.09998,2015.8 273.70001,273.70001 0 0 1 499.39996,1742.1 273.70001,273.70001 0 0 1 773.09998,1468.4 273.70001,273.70001 0 0 1 1046.8,1742.1 Z"
         class="st107"
         style="fill:none;stroke:#414042;stroke-width:1.143;stroke-miterlimit:10"
         id="path55" />
      <path
         d="M 1042.4,1742.1 A 269.29999,269.29999 0 0 1 773.09998,2011.4 269.29999,269.29999 0 0 1 503.79999,1742.1 269.29999,269.29999 0 0 1 773.09998,1472.8 269.29999,269.29999 0 0 1 1042.4,1742.1 Z"
         class="st107"
         style="fill:none;stroke:#414042;stroke-width:1.143;stroke-miterlimit:10"
         id="path56" />
      <path
         d="m 1038.1,1742.1 a 265,265 0 0 1 -265.00002,265 265,265 0 0 1 -265,-265 265,265 0 0 1 265,-265 265,265 0 0 1 265.00002,265 z"
         class="st107"
         style="fill:none;stroke:#414042;stroke-width:1.143;stroke-miterlimit:10"
         id="path57" />
      <path
         d="M 1033.9,1742.1 A 260.79999,260.79999 0 0 1 773.09998,2002.9 260.79999,260.79999 0 0 1 512.29999,1742.1 260.79999,260.79999 0 0 1 773.09998,1481.3 260.79999,260.79999 0 0 1 1033.9,1742.1 Z"
         class="st107"
         style="fill:none;stroke:#414042;stroke-width:1.143;stroke-miterlimit:10"
         id="path58" />
      <path
         d="M 1029.7,1742.1 A 256.60001,256.60001 0 0 1 773.09998,1998.7 256.60001,256.60001 0 0 1 516.49997,1742.1 256.60001,256.60001 0 0 1 773.09998,1485.5 256.60001,256.60001 0 0 1 1029.7,1742.1 Z"
         class="st107"
         style="fill:none;stroke:#414042;stroke-width:1.143;stroke-miterlimit:10"
         id="path59" />
      <path
         d="m 1025.5,1742.1 a 252.39999,252.39999 0 0 1 -252.40002,252.4 252.39999,252.39999 0 0 1 -252.4,-252.4 252.39999,252.39999 0 0 1 252.4,-252.4 252.39999,252.39999 0 0 1 252.40002,252.4 z"
         class="st107"
         style="fill:none;stroke:#414042;stroke-width:1.143;stroke-miterlimit:10"
         id="path60" />
      <path
         d="m 1021.5,1742.1 a 248.39999,248.39999 0 0 1 -248.40002,248.4 248.39999,248.39999 0 0 1 -248.4,-248.4 248.39999,248.39999 0 0 1 248.4,-248.4 248.39999,248.39999 0 0 1 248.40002,248.4 z"
         class="st107"
         style="fill:none;stroke:#414042;stroke-width:1.143;stroke-miterlimit:10"
         id="path61" />
      <path
         d="m 1017.5,1742.1 a 244.39999,244.39999 0 0 1 -244.40002,244.4 244.39999,244.39999 0 0 1 -244.4,-244.4 244.39999,244.39999 0 0 1 244.4,-244.4 244.39999,244.39999 0 0 1 244.40002,244.4 z"
         class="st107"
         style="fill:none;stroke:#414042;stroke-width:1.143;stroke-miterlimit:10"
         id="path62" />
      <path
         d="m 1013.5,1742.1 a 240.39999,240.39999 0 0 1 -240.40002,240.4 240.39999,240.39999 0 0 1 -240.4,-240.4 240.39999,240.39999 0 0 1 240.4,-240.4 240.39999,240.39999 0 0 1 240.40002,240.4 z"
         class="st107"
         style="fill:none;stroke:#414042;stroke-width:1.143;stroke-miterlimit:10"
         id="path63" />
      <path
         d="m 1009.6,1742.1 a 236.5,236.5 0 0 1 -236.50002,236.5 236.5,236.5 0 0 1 -236.5,-236.5 236.5,236.5 0 0 1 236.5,-236.5 236.5,236.5 0 0 1 236.50002,236.5 z"
         class="st107"
         style="fill:none;stroke:#414042;stroke-width:1.143;stroke-miterlimit:10"
         id="path64" />
      <path
         d="m 1005.8,1742.1 a 232.7,232.7 0 0 1 -232.70002,232.7 232.7,232.7 0 0 1 -232.7,-232.7 232.7,232.7 0 0 1 232.7,-232.7 232.7,232.7 0 0 1 232.70002,232.7 z"
         class="st107"
         style="fill:none;stroke:#414042;stroke-width:1.143;stroke-miterlimit:10"
         id="path65" />
      <path
         d="m 1002.1,1742.1 a 229,229 0 0 1 -229.00002,229 229,229 0 0 1 -229,-229 229,229 0 0 1 229,-229 229,229 0 0 1 229.00002,229 z"
         class="st107"
         style="fill:none;stroke:#414042;stroke-width:1.143;stroke-miterlimit:10"
         id="path66" />
      <path
         d="m 998.39998,1742.1 a 225.3,225.3 0 0 1 -225.3,225.3 225.3,225.3 0 0 1 -225.30001,-225.3 225.3,225.3 0 0 1 225.30001,-225.3 225.3,225.3 0 0 1 225.3,225.3 z"
         class="st107"
         style="fill:none;stroke:#414042;stroke-width:1.143;stroke-miterlimit:10"
         id="path67" />
      <path
         d="m 994.89998,1742.1 a 221.8,221.8 0 0 1 -221.8,221.8 221.8,221.8 0 0 1 -221.80001,-221.8 221.8,221.8 0 0 1 221.80001,-221.8 221.8,221.8 0 0 1 221.8,221.8 z"
         class="st107"
         style="fill:none;stroke:#414042;stroke-width:1.143;stroke-miterlimit:10"
         id="path68" />
      <path
         d="m 991.39998,1742.1 a 218.3,218.3 0 0 1 -218.3,218.3 218.3,218.3 0 0 1 -218.30001,-218.3 218.3,218.3 0 0 1 218.30001,-218.3 218.3,218.3 0 0 1 218.3,218.3 z"
         class="st107"
         style="fill:none;stroke:#414042;stroke-width:1.143;stroke-miterlimit:10"
         id="path69" />
      <path
         d="m 987.99997,1742.1 a 214.89999,214.89999 0 0 1 -214.89999,214.9 214.89999,214.89999 0 0 1 -214.9,-214.9 214.89999,214.89999 0 0 1 214.9,-214.9 214.89999,214.89999 0 0 1 214.89999,214.9 z"
         class="st107"
         style="fill:none;stroke:#414042;stroke-width:1.143;stroke-miterlimit:10"
         id="path70" />
      <path
         d="m 984.69998,1742.1 a 211.60001,211.60001 0 0 1 -211.6,211.6 211.60001,211.60001 0 0 1 -211.60001,-211.6 211.60001,211.60001 0 0 1 211.60001,-211.6 211.60001,211.60001 0 0 1 211.6,211.6 z"
         class="st107"
         style="fill:none;stroke:#414042;stroke-width:1.143;stroke-miterlimit:10"
         id="path71" />
      <path
         d="m 981.49997,1742.1 a 208.39999,208.39999 0 0 1 -208.39999,208.4 208.39999,208.39999 0 0 1 -208.4,-208.4 208.39999,208.39999 0 0 1 208.4,-208.4 208.39999,208.39999 0 0 1 208.39999,208.4 z"
         class="st107"
         style="fill:none;stroke:#414042;stroke-width:1.143;stroke-miterlimit:10"
         id="path72" />
      <path
         d="m 978.39998,1742.1 a 205.3,205.3 0 0 1 -205.3,205.3 205.3,205.3 0 0 1 -205.30001,-205.3 205.3,205.3 0 0 1 205.30001,-205.3 205.3,205.3 0 0 1 205.3,205.3 z"
         class="st107"
         style="fill:none;stroke:#414042;stroke-width:1.143;stroke-miterlimit:10"
         id="path73" />
      <path
         d="m 975.39998,1742.1 a 202.3,202.3 0 0 1 -202.3,202.3 202.3,202.3 0 0 1 -202.30001,-202.3 202.3,202.3 0 0 1 202.30001,-202.3 202.3,202.3 0 0 1 202.3,202.3 z"
         class="st107"
         style="fill:none;stroke:#414042;stroke-width:1.143;stroke-miterlimit:10"
         id="path74" />
      <path
         d="m 972.49997,1742.1 a 199.39999,199.39999 0 0 1 -199.39999,199.4 199.39999,199.39999 0 0 1 -199.4,-199.4 199.39999,199.39999 0 0 1 199.4,-199.4 199.39999,199.39999 0 0 1 199.39999,199.4 z"
         class="st107"
         style="fill:none;stroke:#414042;stroke-width:1.143;stroke-miterlimit:10"
         id="path75" />
      <path
         d="m 969.79997,1742.1 a 196.7,196.7 0 0 1 -196.69999,196.7 196.7,196.7 0 0 1 -196.7,-196.7 196.7,196.7 0 0 1 196.7,-196.7 196.7,196.7 0 0 1 196.69999,196.7 z"
         class="st107"
         style="fill:none;stroke:#414042;stroke-width:1.143;stroke-miterlimit:10"
         id="path76" />
      <path
         d="m 967.19998,1742.1 a 194.10001,194.10001 0 0 1 -194.1,194.1 194.10001,194.10001 0 0 1 -194.10001,-194.1 194.10001,194.10001 0 0 1 194.10001,-194.1 194.10001,194.10001 0 0 1 194.1,194.1 z"
         class="st107"
         style="fill:none;stroke:#414042;stroke-width:1.143;stroke-miterlimit:10"
         id="path77" />
      <path
         d="m 964.69998,1742.1 a 191.60001,191.60001 0 0 1 -191.6,191.6 191.60001,191.60001 0 0 1 -191.60001,-191.6 191.60001,191.60001 0 0 1 191.60001,-191.6 191.60001,191.60001 0 0 1 191.6,191.6 z"
         class="st107"
         style="fill:none;stroke:#414042;stroke-width:1.143;stroke-miterlimit:10"
         id="path78" />
      <path
         d="m 962.29997,1742.1 a 189.2,189.2 0 0 1 -189.19999,189.2 189.2,189.2 0 0 1 -189.2,-189.2 189.2,189.2 0 0 1 189.2,-189.2 189.2,189.2 0 0 1 189.19999,189.2 z"
         class="st107"
         style="fill:none;stroke:#414042;stroke-width:1.143;stroke-miterlimit:10"
         id="path79" />
      <path
         d="m 960.09998,1742.1 a 187,187 0 0 1 -187,187 187,187 0 0 1 -187,-187 187,187 0 0 1 187,-187 187,187 0 0 1 187,187 z"
         class="st107"
         style="fill:none;stroke:#414042;stroke-width:1.143;stroke-miterlimit:10"
         id="path80" />
      <path
         d="m 957.99997,1742.1 a 184.89999,184.89999 0 0 1 -184.89999,184.9 184.89999,184.89999 0 0 1 -184.9,-184.9 184.89999,184.89999 0 0 1 184.9,-184.9 184.89999,184.89999 0 0 1 184.89999,184.9 z"
         class="st107"
         style="fill:none;stroke:#414042;stroke-width:1.143;stroke-miterlimit:10"
         id="path81" />
      <path
         d="m 956.09998,1742.1 a 183,183 0 0 1 -183,183 183,183 0 0 1 -183,-183 183,183 0 0 1 183,-183 183,183 0 0 1 183,183 z"
         class="st107"
         style="fill:none;stroke:#414042;stroke-width:1.143;stroke-miterlimit:10"
         id="path82" />
      <path
         d="m 954.29997,1742.1 a 181.2,181.2 0 0 1 -181.19999,181.2 181.2,181.2 0 0 1 -181.2,-181.2 181.2,181.2 0 0 1 181.2,-181.2 181.2,181.2 0 0 1 181.19999,181.2 z"
         class="st107"
         style="fill:none;stroke:#414042;stroke-width:1.143;stroke-miterlimit:10"
         id="path83" />
      <path
         d="m 952.69998,1742.1 a 179.60001,179.60001 0 0 1 -179.6,179.6 179.60001,179.60001 0 0 1 -179.60001,-179.6 179.60001,179.60001 0 0 1 179.60001,-179.6 179.60001,179.60001 0 0 1 179.6,179.6 z"
         class="st107"
         style="fill:none;stroke:#414042;stroke-width:1.143;stroke-miterlimit:10"
         id="path84" />
      <path
         d="m 951.29997,1742.1 a 178.2,178.2 0 0 1 -178.19999,178.2 178.2,178.2 0 0 1 -178.2,-178.2 178.2,178.2 0 0 1 178.2,-178.2 178.2,178.2 0 0 1 178.19999,178.2 z"
         class="st107"
         style="fill:none;stroke:#414042;stroke-width:1.143;stroke-miterlimit:10"
         id="path85" />
      <path
         d="m 949.99997,1742.1 a 176.89999,176.89999 0 0 1 -176.89999,176.9 176.89999,176.89999 0 0 1 -176.9,-176.9 176.89999,176.89999 0 0 1 176.9,-176.9 176.89999,176.89999 0 0 1 176.89999,176.9 z"
         class="st107"
         style="fill:none;stroke:#414042;stroke-width:1.143;stroke-miterlimit:10"
         id="path86" />
      <path
         d="m 948.89998,1742.1 a 175.8,175.8 0 0 1 -175.8,175.8 175.8,175.8 0 0 1 -175.80001,-175.8 175.8,175.8 0 0 1 175.80001,-175.8 175.8,175.8 0 0 1 175.8,175.8 z"
         class="st107"
         style="fill:none;stroke:#414042;stroke-width:1.143;stroke-miterlimit:10"
         id="path87" />
      <path
         d="m 947.99997,1742.1 a 174.89999,174.89999 0 0 1 -174.89999,174.9 174.89999,174.89999 0 0 1 -174.9,-174.9 174.89999,174.89999 0 0 1 174.9,-174.9 174.89999,174.89999 0 0 1 174.89999,174.9 z"
         class="st107"
         style="fill:none;stroke:#414042;stroke-width:1.143;stroke-miterlimit:10"
         id="path88" />
      <path
         d="m 947.19998,1742.1 a 174.10001,174.10001 0 0 1 -174.1,174.1 174.10001,174.10001 0 0 1 -174.10001,-174.1 174.10001,174.10001 0 0 1 174.10001,-174.1 174.10001,174.10001 0 0 1 174.1,174.1 z"
         class="st107"
         style="fill:none;stroke:#414042;stroke-width:1.143;stroke-miterlimit:10"
         id="path89" />
      <path
         d="m 946.69998,1742.1 a 173.60001,173.60001 0 0 1 -173.6,173.6 173.60001,173.60001 0 0 1 -173.60001,-173.6 173.60001,173.60001 0 0 1 173.60001,-173.6 173.60001,173.60001 0 0 1 173.6,173.6 z"
         class="st107"
         style="fill:none;stroke:#414042;stroke-width:1.143;stroke-miterlimit:10"
         id="path90" />
      <path
         d="m 946.29997,1742.1 a 173.2,173.2 0 0 1 -173.19999,173.2 173.2,173.2 0 0 1 -173.2,-173.2 173.2,173.2 0 0 1 173.2,-173.2 173.2,173.2 0 0 1 173.19999,173.2 z"
         class="st107"
         style="fill:none;stroke:#414042;stroke-width:1.143;stroke-miterlimit:10"
         id="path91" />
      <path
         d="m 946.09998,1742.1 a 173,173 0 0 1 -173,173 173,173 0 0 1 -173,-173 173,173 0 0 1 173,-173 173,173 0 0 1 173,173 z"
         class="st107"
         style="fill:none;stroke:#414042;stroke-width:1.143;stroke-miterlimit:10"
         id="path92" />
      <path
         d="m 946.09998,1742.1 a 173,173 0 0 1 -173,173 173,173 0 0 1 -173,-173 173,173 0 0 1 173,-173 173,173 0 0 1 173,173 z"
         class="st107"
         style="fill:none;stroke:#414042;stroke-width:1.143;stroke-miterlimit:10"
         id="path93" />
      <path
         d="m 946.19998,1742.1 a 173.10001,173.10001 0 0 1 -173.1,173.1 173.10001,173.10001 0 0 1 -173.10001,-173.1 173.10001,173.10001 0 0 1 173.10001,-173.1 173.10001,173.10001 0 0 1 173.1,173.1 z"
         class="st107"
         style="fill:none;stroke:#414042;stroke-width:1.143;stroke-miterlimit:10"
         id="path94" />
      <path
         d="m 946.59998,1742.1 a 173.5,173.5 0 0 1 -173.5,173.5 173.5,173.5 0 0 1 -173.5,-173.5 173.5,173.5 0 0 1 173.5,-173.5 173.5,173.5 0 0 1 173.5,173.5 z"
         class="st107"
         style="fill:none;stroke:#414042;stroke-width:1.143;stroke-miterlimit:10"
         id="path95" />
      <path
         d="m 947.09998,1742.1 a 174,174 0 0 1 -174,174 174,174 0 0 1 -174,-174 174,174 0 0 1 174,-174 174,174 0 0 1 174,174 z"
         class="st107"
         style="fill:none;stroke:#414042;stroke-width:1.143;stroke-miterlimit:10"
         id="path96" />
      <path
         d="m 947.79997,1742.1 a 174.7,174.7 0 0 1 -174.69999,174.7 174.7,174.7 0 0 1 -174.7,-174.7 174.7,174.7 0 0 1 174.7,-174.7 174.7,174.7 0 0 1 174.69999,174.7 z"
         class="st107"
         style="fill:none;stroke:#414042;stroke-width:1.143;stroke-miterlimit:10"
         id="path97" />
      <path
         d="m 948.69998,1742.1 a 175.60001,175.60001 0 0 1 -175.6,175.6 175.60001,175.60001 0 0 1 -175.60001,-175.6 175.60001,175.60001 0 0 1 175.60001,-175.6 175.60001,175.60001 0 0 1 175.6,175.6 z"
         class="st107"
         style="fill:none;stroke:#414042;stroke-width:1.143;stroke-miterlimit:10"
         id="path98" />
      <path
         d="m 949.79997,1742.1 a 176.7,176.7 0 0 1 -176.69999,176.7 176.7,176.7 0 0 1 -176.7,-176.7 176.7,176.7 0 0 1 176.7,-176.7 176.7,176.7 0 0 1 176.69999,176.7 z"
         class="st107"
         style="fill:none;stroke:#414042;stroke-width:1.143;stroke-miterlimit:10"
         id="path99" />
      <path
         d="m 950.99997,1742.1 a 177.89999,177.89999 0 0 1 -177.89999,177.9 177.89999,177.89999 0 0 1 -177.9,-177.9 177.89999,177.89999 0 0 1 177.9,-177.9 177.89999,177.89999 0 0 1 177.89999,177.9 z"
         class="st107"
         style="fill:none;stroke:#414042;stroke-width:1.143;stroke-miterlimit:10"
         id="path100" />
      <path
         d="m 952.39998,1742.1 a 179.3,179.3 0 0 1 -179.3,179.3 179.3,179.3 0 0 1 -179.30001,-179.3 179.3,179.3 0 0 1 179.30001,-179.3 179.3,179.3 0 0 1 179.3,179.3 z"
         class="st107"
         style="fill:none;stroke:#414042;stroke-width:1.143;stroke-miterlimit:10"
         id="path101" />
      <path
         d="m 953.99997,1742.1 a 180.89999,180.89999 0 0 1 -180.89999,180.9 180.89999,180.89999 0 0 1 -180.9,-180.9 180.89999,180.89999 0 0 1 180.9,-180.9 180.89999,180.89999 0 0 1 180.89999,180.9 z"
         class="st107"
         style="fill:none;stroke:#414042;stroke-width:1.143;stroke-miterlimit:10"
         id="path102" />
      <path
         d="m 955.69998,1742.1 a 182.60001,182.60001 0 0 1 -182.6,182.6 182.60001,182.60001 0 0 1 -182.60001,-182.6 182.60001,182.60001 0 0 1 182.60001,-182.6 182.60001,182.60001 0 0 1 182.6,182.6 z"
         class="st107"
         style="fill:none;stroke:#414042;stroke-width:1.143;stroke-miterlimit:10"
         id="path103" />
    </g>
    <g
       id="g112">
      <path
         d="M 1331,1742.1 A 557.90002,557.90002 0 0 1 773.09998,2300 557.90002,557.90002 0 0 1 215.19995,1742.1 557.90002,557.90002 0 0 1 773.09998,1184.2 557.90002,557.90002 0 0 1 1331,1742.1 Z"
         class="st108"
         style="fill:none;stroke:#282829;stroke-width:3.429;stroke-miterlimit:10"
         id="path104" />
      <path
         d="M 1313.7,1742.1 A 540.59998,540.59998 0 0 1 773.09998,2282.7 540.59998,540.59998 0 0 1 232.5,1742.1 540.59998,540.59998 0 0 1 773.09998,1201.5 540.59998,540.59998 0 0 1 1313.7,1742.1 Z"
         class="st108"
         style="fill:none;stroke:#282829;stroke-width:3.429;stroke-miterlimit:10"
         id="path105" />
      <path
         d="m 1259.5,1742.1 a 486.39999,486.39999 0 0 1 -486.40002,486.4 486.39999,486.39999 0 0 1 -486.4,-486.4 486.39999,486.39999 0 0 1 486.4,-486.4 486.39999,486.39999 0 0 1 486.40002,486.4 z"
         class="st108"
         style="fill:none;stroke:#282829;stroke-width:3.429;stroke-miterlimit:10"
         id="path106" />
      <path
         d="m 1206.5,1742.1 a 433.39999,433.39999 0 0 1 -433.40002,433.4 433.39999,433.39999 0 0 1 -433.4,-433.4 433.39999,433.39999 0 0 1 433.4,-433.4 433.39999,433.39999 0 0 1 433.40002,433.4 z"
         class="st108"
         style="fill:none;stroke:#282829;stroke-width:3.429;stroke-miterlimit:10"
         id="path107" />
      <path
         d="M 1170.8,1742.1 A 397.70001,397.70001 0 0 1 773.09998,2139.8 397.70001,397.70001 0 0 1 375.39996,1742.1 397.70001,397.70001 0 0 1 773.09998,1344.4 397.70001,397.70001 0 0 1 1170.8,1742.1 Z"
         class="st108"
         style="fill:none;stroke:#282829;stroke-width:3.429;stroke-miterlimit:10"
         id="path108" />
      <path
         d="M 1126.4,1742.1 A 353.29999,353.29999 0 0 1 773.09998,2095.4 353.29999,353.29999 0 0 1 419.79999,1742.1 353.29999,353.29999 0 0 1 773.09998,1388.8 353.29999,353.29999 0 0 1 1126.4,1742.1 Z"
         class="st108"
         style="fill:none;stroke:#282829;stroke-width:3.429;stroke-miterlimit:10"
         id="path109" />
      <path
         d="M 1085.3,1742.1 A 312.20001,312.20001 0 0 1 773.09998,2054.3 312.20001,312.20001 0 0 1 460.89996,1742.1 312.20001,312.20001 0 0 1 773.09998,1429.9 312.20001,312.20001 0 0 1 1085.3,1742.1 Z"
         class="st108"
         style="fill:none;stroke:#282829;stroke-width:3.429;stroke-miterlimit:10"
         id="path110" />
      <path
         d="M 1053.9,1742.1 A 280.79999,280.79999 0 0 1 773.09998,2022.9 280.79999,280.79999 0 0 1 492.29999,1742.1 280.79999,280.79999 0 0 1 773.09998,1461.3 280.79999,280.79999 0 0 1 1053.9,1742.1 Z"
         class="st108"
         style="fill:none;stroke:#282829;stroke-width:3.429;stroke-miterlimit:10"
         id="path111" />
      <path
         d="m 1017.1,1742.1 a 244,244 0 0 1 -244.00002,244 244,244 0 0 1 -244,-244 244,244 0 0 1 244,-244 244,244 0 0 1 244.00002,244 z"
         class="st108"
         style="fill:none;stroke:#282829;stroke-width:3.429;stroke-miterlimit:10"
         id="path112" />
    </g>
    <path
       class="st2"
       d="m 773.1,1498.1 c -134.8,0 -244,109.3 -244,244 0,134.7 109.3,244 244,244 134.7,0 244,-109.3 244,-244 0,-134.7 -109.3,-244 -244,-244 z m 0,259.7 c -8.7,0 -15.7,-7 -15.7,-15.7 0,-8.7 7,-15.7 15.7,-15.7 8.7,0 15.7,7 15.7,15.7 0,8.7 -7.1,15.7 -15.7,15.7 z"
       style="fill:#282829"
       id="path113" />
    <path
       class="st3"
       d="m 773.09991,1553.35 c -104.3,0 -188.8,84.5 -188.8,188.8 0,104.3 84.5,188.8 188.8,188.8 104.3,0 188.8,-84.5 188.8,-188.8 0,-104.3 -84.5,-188.8 -188.8,-188.8 z m 0,204.5 c -8.7,0 -15.7,-7 -15.7,-15.7 0,-8.7 7,-15.7 15.7,-15.7 8.7,0 15.7,7 15.7,15.7 0,8.7 -7.1,15.7 -15.7,15.7 z"
       style="opacity:0.1;fill:#ffffff"
       id="path114" />
    <path
       class="st109"
       d="m 773.09991,1569.15 c -95.5,0 -173,77.5 -173,173 0,95.5 77.5,173 173,173 95.5,0 173,-77.5 173,-173 0,-95.5 -77.5,-173 -173,-173 z"
       style="opacity:0.1;fill:#ffffff;stroke:#000b0f;stroke-width:5.715;stroke-miterlimit:10;stroke-opacity:1"
       id="path115" />
    <path
       class="st110"
       d="m 1053.9,1742.1 c 0,-155.1 -125.7,-280.8 -280.8,-280.8 v 36.8 c 134.8,0 244,109.3 244,244 z"
       style="opacity:0.12;fill:url(#SVGID_23_)"
       id="path119" />
    <path
       class="st111"
       d="m 1085.3,1742.1 c 0,-172.4 -139.8,-312.2 -312.2,-312.2 v 31.4 c 155.1,0 280.8,125.7 280.8,280.8 z"
       style="opacity:0.12;fill:url(#SVGID_24_)"
       id="path122" />
    <path
       class="st112"
       d="m 1126.4,1742.1 c 0,-195.1 -158.2,-353.3 -353.3,-353.3 v -44.4 c 219.6,0 397.7,178.1 397.7,397.7 z"
       style="opacity:0.12;fill:url(#SVGID_25_)"
       id="path125" />
    <path
       class="st113"
       d="m 1170.8,1742.1 c 0,-219.6 -178.1,-397.7 -397.7,-397.7 v -35.7 c 239.4,0 433.4,194 433.4,433.4 z"
       style="opacity:0.12;fill:url(#SVGID_26_)"
       id="path128" />
    <path
       class="st114"
       d="m 1206.5,1742.1 c 0,-239.4 -194,-433.4 -433.4,-433.4 v -53 c 268.7,0 486.4,217.8 486.4,486.4 z"
       style="opacity:0.12;fill:url(#SVGID_27_)"
       id="path131" />
    <path
       class="st115"
       d="m 1259.5,1742.1 c 0,-268.7 -217.8,-486.4 -486.4,-486.4 v -54.1 c 298.5,0 540.6,242 540.6,540.6 h -54.2 z"
       style="opacity:0.12;fill:url(#SVGID_28_)"
       id="path136" />
    <path
       class="st116"
       d="m 1313.6,1742.1 c 0,-298.5 -242,-540.6 -540.6,-540.6 v -17.3 c 308.1,0 557.9,249.8 557.9,557.9 z"
       style="opacity:0.2;fill:url(#SVGID_29_)"
       id="path139" />
    <path
       class="st117"
       d="m 1085.3,1742.1 c 0,-172.4 -139.8,-312.2 -312.2,-312.2 v -41.1 c 195.1,0 353.3,158.2 353.3,353.3 z"
       style="opacity:0.12;fill:url(#SVGID_30_)"
       id="path142" />
    <g
       id="g170">
      <linearGradient
         id="SVGID_31_"
         gradientUnits="userSpaceOnUse"
         x1="2679.1289"
         y1="-744.59308"
         x2="2959.9551"
         y2="-463.767"
         gradientTransform="rotate(180,1716.1573,649.125)">
        <stop
           offset="0"
           style="stop-color:#FFFFFF;stop-opacity:0"
           id="stop143" />
        <stop
           offset="0.4312"
           style="stop-color:#FFFFFF;stop-opacity:0.8625"
           id="stop144" />
        <stop
           offset="0.5"
           style="stop-color:#FFFFFF"
           id="stop145" />
        <stop
           offset="0.5688"
           style="stop-color:#FFFFFF;stop-opacity:0.8625"
           id="stop146" />
        <stop
           offset="1"
           style="stop-color:#FFFFFF;stop-opacity:0"
           id="stop147" />
      </linearGradient>
      <path
         class="st118"
         d="m 492.2,1742.1 c 0,155.1 125.7,280.8 280.8,280.8 v -36.8 c -134.8,0 -244,-109.3 -244,-244 z"
         style="opacity:0.12;fill:url(#SVGID_31_)"
         id="path147" />
      <linearGradient
         id="SVGID_32_"
         gradientUnits="userSpaceOnUse"
         x1="2683.7319"
         y1="-780.57819"
         x2="2995.9414"
         y2="-468.36871"
         gradientTransform="rotate(180,1716.1573,649.125)">
        <stop
           offset="0"
           style="stop-color:#FFFFFF;stop-opacity:0"
           id="stop148" />
        <stop
           offset="0.5"
           style="stop-color:#FFFFFF"
           id="stop149" />
        <stop
           offset="1"
           style="stop-color:#FFFFFF;stop-opacity:0"
           id="stop150" />
      </linearGradient>
      <path
         class="st119"
         d="m 460.9,1742.1 c 0,172.4 139.8,312.2 312.2,312.2 V 2023 C 618,2023 492.3,1897.3 492.3,1742.2 h -31.4 z"
         style="opacity:0.12;fill:url(#SVGID_32_)"
         id="path150" />
      <linearGradient
         id="SVGID_33_"
         gradientUnits="userSpaceOnUse"
         x1="2689.3381"
         y1="-871.67828"
         x2="3087.0408"
         y2="-473.97571"
         gradientTransform="rotate(180,1716.1573,649.125)">
        <stop
           offset="5.000000e-02"
           style="stop-color:#FFFFFF;stop-opacity:0"
           id="stop151" />
        <stop
           offset="0.5"
           style="stop-color:#FFFFFF"
           id="stop152" />
        <stop
           offset="0.95"
           style="stop-color:#FFFFFF;stop-opacity:0"
           id="stop153" />
      </linearGradient>
      <path
         class="st120"
         d="m 419.7,1742.1 c 0,195.1 158.2,353.3 353.3,353.3 v 44.4 c -219.6,0 -397.7,-178.1 -397.7,-397.7 z"
         style="opacity:0.12;fill:url(#SVGID_33_)"
         id="path153" />
      <linearGradient
         id="SVGID_34_"
         gradientUnits="userSpaceOnUse"
         x1="2695.2014"
         y1="-913.25159"
         x2="3128.615"
         y2="-479.83801"
         gradientTransform="rotate(180,1716.1573,649.125)">
        <stop
           offset="5.000000e-02"
           style="stop-color:#FFFFFF;stop-opacity:0"
           id="stop154" />
        <stop
           offset="0.5"
           style="stop-color:#FFFFFF"
           id="stop155" />
        <stop
           offset="0.95"
           style="stop-color:#FFFFFF;stop-opacity:0"
           id="stop156" />
      </linearGradient>
      <path
         class="st121"
         d="m 375.4,1742.1 c 0,219.6 178.1,397.7 397.7,397.7 v 35.7 c -239.4,0 -433.4,-194 -433.4,-433.4 z"
         style="opacity:0.12;fill:url(#SVGID_34_)"
         id="path156" />
      <linearGradient
         id="SVGID_35_"
         gradientUnits="userSpaceOnUse"
         x1="2696.363"
         y1="-967.44159"
         x2="3182.804"
         y2="-481.0007"
         gradientTransform="rotate(180,1716.1573,649.125)">
        <stop
           offset="0.1"
           style="stop-color:#FFFFFF;stop-opacity:0"
           id="stop157" />
        <stop
           offset="0.5"
           style="stop-color:#FFFFFF"
           id="stop158" />
        <stop
           offset="0.9"
           style="stop-color:#FFFFFF;stop-opacity:0"
           id="stop159" />
      </linearGradient>
      <path
         class="st122"
         d="m 339.7,1742.1 c 0,239.4 194,433.4 433.4,433.4 v 53 c -268.7,0 -486.4,-217.8 -486.4,-486.4 z"
         style="opacity:0.12;fill:url(#SVGID_35_)"
         id="path159" />
      <linearGradient
         id="SVGID_36_"
         gradientUnits="userSpaceOnUse"
         x1="2701.6931"
         y1="-1026.8997"
         x2="3242.2622"
         y2="-486.33051"
         gradientTransform="rotate(180,1716.1573,649.125)">
        <stop
           offset="0.1"
           style="stop-color:#FFFFFF;stop-opacity:0"
           id="stop160" />
        <stop
           offset="0.155"
           style="stop-color:#FFFFFF;stop-opacity:0.1375"
           id="stop161" />
        <stop
           offset="0.5"
           style="stop-color:#FFFFFF"
           id="stop162" />
        <stop
           offset="0.845"
           style="stop-color:#FFFFFF;stop-opacity:0.1375"
           id="stop163" />
        <stop
           offset="0.9"
           style="stop-color:#FFFFFF;stop-opacity:0"
           id="stop164" />
      </linearGradient>
      <path
         class="st123"
         d="m 286.6,1742.1 c 0,268.7 217.8,486.4 486.4,486.4 v 54.1 c -298.5,0 -540.6,-242 -540.6,-540.6 h 54.2 z"
         style="opacity:0.12;fill:url(#SVGID_36_)"
         id="path164" />
      <linearGradient
         id="SVGID_37_"
         gradientUnits="userSpaceOnUse"
         x1="2712.6924"
         y1="-1055.1948"
         x2="3270.5574"
         y2="-497.3298"
         gradientTransform="rotate(180,1716.1573,649.125)">
        <stop
           offset="0"
           style="stop-color:#FFFFFF;stop-opacity:0"
           id="stop165" />
        <stop
           offset="0.5"
           style="stop-color:#FFFFFF"
           id="stop166" />
        <stop
           offset="1"
           style="stop-color:#FFFFFF;stop-opacity:0"
           id="stop167" />
      </linearGradient>
      <path
         class="st124"
         d="m 232.5,1742.1 c 0,298.5 242,540.6 540.6,540.6 V 2300 C 465,2300 215.2,2050.2 215.2,1742.1 Z"
         style="opacity:0.2;fill:url(#SVGID_37_)"
         id="path167" />
      <linearGradient
         id="SVGID_38_"
         gradientUnits="userSpaceOnUse"
         x1="2685.5557"
         y1="-823.52502"
         x2="3038.8882"
         y2="-470.19241"
         gradientTransform="rotate(180,1716.1573,649.125)">
        <stop
           offset="0"
           style="stop-color:#FFFFFF;stop-opacity:0"
           id="stop168" />
        <stop
           offset="0.5"
           style="stop-color:#FFFFFF"
           id="stop169" />
        <stop
           offset="1"
           style="stop-color:#FFFFFF;stop-opacity:0"
           id="stop170" />
      </linearGradient>
      <path
         class="st125"
         d="m 460.9,1742.1 c 0,172.4 139.8,312.2 312.2,312.2 v 41.1 c -195.1,0 -353.3,-158.2 -353.3,-353.3 z"
         style="opacity:0.12;fill:url(#SVGID_38_)"
         id="path170" />
    </g>
  </g>
</svg>
